<svg width="80" height="80" viewBox="0 0 80 80" fill="none" xmlns="http://www.w3.org/2000/svg">
<path d="M69.5208 50.2874C68.1215 48.888 65.8443 48.8882 64.4447 50.2875L56.0098 58.7225L53.0614 55.7739C51.662 54.3747 49.3848 54.3747 47.9853 55.7739C46.5858 57.1735 46.5858 59.4508 47.9853 60.8503L53.4718 66.3369C54.1498 67.0146 55.0512 67.388 56.01 67.388C56.9687 67.388 57.8701 67.0146 58.5481 66.3367L69.5211 55.3638C70.199 54.686 70.5725 53.7844 70.5725 52.8255C70.5722 51.8671 70.1989 50.9655 69.5208 50.2874ZM67.8558 53.6989L56.8826 64.6721C56.6493 64.9053 56.3392 65.0338 56.0093 65.0338C55.6795 65.0338 55.3693 64.9053 55.1361 64.6721L49.6495 59.1855C49.4165 58.9522 49.2881 58.6421 49.2881 58.3122C49.2881 57.9822 49.4165 57.6722 49.6498 57.4389C49.8906 57.1982 50.2068 57.0777 50.5231 57.0777C50.8393 57.0777 51.1556 57.1982 51.3964 57.4389L55.1772 61.2199C55.3978 61.4405 55.6973 61.5646 56.0095 61.5646C56.3217 61.5646 56.6212 61.4405 56.8418 61.2199L66.109 51.9525C66.5906 51.4708 67.3742 51.4708 67.8556 51.9522C68.089 52.1856 68.2175 52.4958 68.2175 52.8257C68.2176 53.1557 68.089 53.4657 67.8558 53.6989Z" fill="#0F0F0F"/>
<path d="M75.0545 52.1053V35.6408C75.0545 34.9905 74.5275 34.4636 73.8773 34.4636C73.2272 34.4636 72.7002 34.9905 72.7002 35.6408V42.5594C71.1314 41.1944 69.3795 40.0745 67.5047 39.2267C67.4345 39.1948 67.3636 39.1645 67.293 39.1334C67.2214 39.102 67.1502 39.07 67.0783 39.0394C66.9525 38.9855 66.8259 38.9338 66.6989 38.8823C66.6828 38.8758 66.6667 38.8691 66.6505 38.8625C65.6 38.4403 64.5083 38.1002 63.3833 37.8491V30.9322C63.3833 30.2819 62.8563 29.755 62.2061 29.755H54.6217C53.9716 29.755 53.4445 30.2819 53.4445 30.9322V38.0045C49.7788 38.943 70.8746 53.0339 68.1358 55.7895C67.6775 56.2508 78.3717 62.0938 61.0291 56.3158C61.4902 56.7738 57.4363 52.0399 57.8947 51.579C61.468 47.9832 53.6839 39.6934 58.7527 39.6934C58.9206 39.6934 59.0883 39.6958 59.2556 39.7002C59.2848 39.7009 59.3139 39.7027 59.3431 39.7034C59.4831 39.7078 59.6231 39.713 59.7627 39.7205C59.7848 39.7216 59.8066 39.7234 59.8288 39.7247C59.9769 39.7331 60.125 39.7428 60.2727 39.7547C60.2833 39.7556 60.2941 39.7566 60.3048 39.7575C62.4798 39.9367 64.5909 40.4903 66.5506 41.3788C66.6181 41.4095 66.6849 41.4416 66.752 41.473C66.8209 41.5052 66.89 41.5372 66.9586 41.5703C67.0791 41.6288 67.1991 41.6883 67.3181 41.7492C67.3298 41.7552 67.3417 41.7609 67.3534 41.767C73.4589 44.9017 67.5047 53.1969 67.5047 60.5189C67.5047 70.9364 69.1705 62.6316 58.7528 62.6316C48.9877 62.6316 44.6552 70.0396 43.6842 60.5264C64.7786 60.5338 58.4215 60.0046 58.4211 60C58.4061 59.8505 44.1857 60.1722 44.174 60.0217C44.1715 59.9893 52.1076 60.0873 52.1053 60.055C52.0962 59.9288 44.2172 59.6006 44.2105 59.4737C44.2069 59.4022 44.2133 59.0191 44.2105 58.9474C44.2068 58.856 51.0551 59.039 51.0526 58.9474C51.0484 58.7802 49.2037 58.9992 49.2037 58.8314C49.2037 55.3649 56.9616 55.0508 58.7527 52.1053C59.0905 51.5498 58.4502 50.8642 57.8947 50.5264C57.339 50.1885 58.2324 52.6023 57.8947 53.1579C55.8793 56.4722 47.3684 54.523 47.3684 58.4211C47.3684 58.5956 50.5223 58.7737 50.5263 58.9474C56.698 58.7858 51.5777 59.434 51.5789 59.4737C51.583 59.6125 47.888 59.3354 47.8947 59.4737C52.9941 59.4081 48.9455 59.4406 48.9474 59.4737C48.9553 59.6256 53.4334 60.3539 53.4445 60.5053C53.4456 60.5197 43.6831 59.9855 43.6842 60C43.835 61.9755 47.4873 64.1398 48.1759 65.9869H2.35422V46.9539C2.35422 46.3036 1.82719 45.7767 1.17703 45.7767C0.526875 45.7767 0 46.3036 0 46.9539V67.1636C0 67.8139 0.527031 68.3408 1.17719 68.3408H55.7989C59.3391 75.162 61.0526 50.5264 57.8947 69.4737C62.2061 55.7895 62.6316 53.1579 71.0526 62.1053C71.0526 56.9309 54.6217 45.7767 75.0545 52.1053ZM61.0291 37.3394H55.7989V32.1094H61.0291V37.3394Z" fill="#0F0F0F"/>
<path d="M20.5138 29.755H12.9294C12.2792 29.755 11.7522 30.2819 11.7522 30.9322V38.5164C11.7522 39.1667 12.2792 39.6936 12.9294 39.6936H20.5138C21.1639 39.6936 21.6909 39.1667 21.6909 38.5164V30.9322C21.6909 30.2819 21.1639 29.755 20.5138 29.755ZM19.3366 37.3394H14.1066V32.1094H19.3367V37.3394H19.3366Z" fill="#0F0F0F"/>
<path d="M34.4113 29.755H26.8269C26.1767 29.755 25.6497 30.2819 25.6497 30.9322V38.5164C25.6497 39.1667 26.1767 39.6936 26.8269 39.6936H34.4113C35.0614 39.6936 35.5884 39.1667 35.5884 38.5164V30.9322C35.5883 30.2819 35.0613 29.755 34.4113 29.755ZM33.2341 37.3394H28.0039V32.1094H33.2341V37.3394Z" fill="#0F0F0F"/>
<path d="M48.3087 29.755H40.7244C40.0742 29.755 39.5472 30.2819 39.5472 30.9322V38.5164C39.5472 39.1667 40.0742 39.6936 40.7244 39.6936H48.3087C48.9589 39.6936 49.4859 39.1667 49.4859 38.5164V30.9322C49.4859 30.2819 48.9589 29.755 48.3087 29.755ZM47.1317 37.3394H41.9016V32.1094H47.1317V37.3394Z" fill="#0F0F0F"/>
<path d="M20.5138 46.0374H12.9294C12.2792 46.0374 11.7522 46.5642 11.7522 47.2145V54.7989C11.7522 55.4492 12.2792 55.9761 12.9294 55.9761H20.5138C21.1639 55.9761 21.6909 55.4492 21.6909 54.7989V47.2145C21.6909 46.5642 21.1639 46.0374 20.5138 46.0374ZM19.3366 53.6217H14.1066V48.3916H19.3367V53.6217H19.3366Z" fill="#0F0F0F"/>
<path d="M34.4113 46.0374H26.8269C26.1767 46.0374 25.6497 46.5642 25.6497 47.2145V54.7989C25.6497 55.4492 26.1767 55.9761 26.8269 55.9761H34.4113C35.0614 55.9761 35.5884 55.4492 35.5884 54.7989V47.2145C35.5883 46.5642 35.0614 46.0374 34.4113 46.0374ZM33.2341 53.6217H28.0039V48.3916H33.2341V53.6217Z" fill="#0F0F0F"/>
<path d="M73.918 9.09154H73.8775H66.5633V4.83748C66.5633 2.26185 64.4678 0.166382 61.8923 0.166382C59.3167 0.166382 57.2214 2.26185 57.2214 4.83748V9.09154H17.9144V4.83748C17.9144 2.26185 15.8189 0.166382 13.2434 0.166382C10.668 0.166382 8.5725 2.26185 8.5725 4.83748V9.09154H1.21766H1.17719C0.527031 9.09154 0 9.61841 0 10.2686V46.8421C0 47.4922 0.5675 47.3684 1.21766 47.3684C1.86781 47.3684 2.35437 48.772 2.35437 48.1218V24.187H72.7005V35.7895C72.7005 36.4398 73.2273 36.3158 73.8775 36.3158C73.4737 37.3684 75.0527 42.4513 75.0527 36.8421L75.0548 23.3118C75.0555 23.529 75.0548 23.074 75.0548 22.9695L75.0527 9.99998C75.0525 9.34982 74.5681 9.09154 73.918 9.09154ZM59.5758 4.83748C59.5758 3.55998 60.6152 2.52076 61.8923 2.52076C63.1698 2.52076 64.2089 3.56013 64.2089 4.83748V14.042C64.2089 14.2017 64.1926 14.3576 64.1619 14.5083C63.9455 15.5629 63.01 16.3587 61.8923 16.3587C60.6148 16.3587 59.5758 15.3194 59.5758 14.042V4.83748ZM10.9269 4.83748C10.9269 3.55998 11.9661 2.52076 13.2434 2.52076C14.5208 2.52076 15.56 3.56013 15.56 4.83748V14.042C15.56 15.3195 14.5206 16.3587 13.2434 16.3587C11.9662 16.3587 10.9269 15.3192 10.9269 14.0418V4.83748ZM72.7003 21.8326H2.39484V11.4456H8.5725V14.0418C8.5725 16.6175 10.6678 18.7129 13.2434 18.7129C15.8191 18.7129 17.9144 16.6175 17.9144 14.0418V11.4456H57.2217V14.0418C57.2217 16.6175 59.3172 18.7129 61.8927 18.7129C64.4683 18.7129 66.5636 16.6175 66.5636 14.0418V11.4456H72.7008L72.7003 21.8326Z" fill="#0F0F0F"/>
<path d="M60 72.5C69.8104 72.5 77.7632 64.5472 77.7632 54.7368C77.7632 44.9265 69.8104 36.9736 60 36.9736C50.1897 36.9736 42.2368 44.9265 42.2368 54.7368C42.2368 64.5472 50.1897 72.5 60 72.5Z" fill="#F3F3F3"/>
<path d="M60 36.6666C56.374 36.6666 52.8294 37.7419 49.8145 39.7564C46.7996 41.7708 44.4498 44.6341 43.0622 47.9841C41.6746 51.3341 41.3115 55.0203 42.0189 58.5766C42.7263 62.1329 44.4724 65.3996 47.0364 67.9636C49.6003 70.5276 52.867 72.2736 56.4233 72.981C59.9797 73.6884 63.6659 73.3254 67.0159 71.9378C70.3658 70.5502 73.2291 68.2003 75.2436 65.1854C77.2581 62.1705 78.3333 58.626 78.3333 55C78.3276 50.1394 76.3942 45.4796 72.9573 42.0427C69.5204 38.6057 64.8605 36.6724 60 36.6666ZM66.1783 61.1783C65.8658 61.4908 65.4419 61.6663 65 61.6663C64.5581 61.6663 64.1342 61.4908 63.8217 61.1783L58.8217 56.1783C58.5091 55.8658 58.3334 55.442 58.3333 55V45C58.3333 44.5579 58.5089 44.134 58.8215 43.8215C59.134 43.5089 59.558 43.3333 60 43.3333C60.442 43.3333 60.8659 43.5089 61.1785 43.8215C61.4911 44.134 61.6667 44.5579 61.6667 45V54.31L66.1783 58.8216C66.4908 59.1342 66.6663 59.558 66.6663 60C66.6663 60.4419 66.4908 60.8658 66.1783 61.1783Z" fill="#117BD4"/>
</svg>
