<svg width="62" height="81" viewBox="0 0 62 81" fill="none" xmlns="http://www.w3.org/2000/svg">
<path d="M0 1.28922V68.3489C0 69.0612 0.574812 69.6387 1.28394 69.6387H50.0684C50.777 69.6387 51.3518 69.0612 51.3518 68.3489V14.1857C51.3518 14.157 51.338 14.1326 51.3354 14.1044C51.329 13.9913 51.3068 13.8797 51.2698 13.7729C51.2555 13.7315 51.2455 13.6917 51.2275 13.6513C51.1651 13.5111 51.0784 13.383 50.9705 13.2736L38.1327 0.377683C38.0238 0.268787 37.8958 0.18167 37.7551 0.11952C37.7165 0.103053 37.6774 0.0892415 37.6372 0.0770239C37.5299 0.0398399 37.4183 0.0175297 37.3046 0.0100928C37.2829 0.0138112 37.2575 0 37.2305 0H1.28394C0.574812 0 0 0.576883 0 1.28922ZM46.969 12.8959H38.514V4.40258L46.969 12.8959ZM2.56735 2.57897H35.9466V14.1857C35.9466 14.8975 36.5214 15.4749 37.23 15.4749H48.7844V67.0597H2.56735V2.57897Z" fill="#0F0F0F"/>
<path d="M9.01358 18.0663H42.4091V20.6468H9.01358V18.0663Z" fill="#0F0F0F"/>
<path d="M9.01358 25.8079H42.4091V28.3884H9.01358V25.8079Z" fill="#0F0F0F"/>
<path d="M9.01358 41.2924H32.1336V43.8729H9.01358V41.2924Z" fill="#0F0F0F"/>
<path d="M9.01358 33.5508H26.9958V36.1313H9.01358V33.5508Z" fill="#0F0F0F"/>
<path d="M32.1335 33.5508H42.409V36.1313H32.1335V33.5508Z" fill="#0F0F0F"/>
<path d="M9.01358 10.3258H19.284V12.9053H9.01358V10.3258Z" fill="#0F0F0F"/>
<rect x="28.0485" y="45.2267" width="31.9511" height="27.6387" fill="#F3F3F3"/>
<path d="M7.70563 25.8054H43.67V28.3859H7.70563V25.8054Z" fill="#0F0F0F"/>
<path d="M7.70563 18.0638H43.67V20.6444H7.70563V18.0638Z" fill="#0F0F0F"/>
<path d="M7.70563 33.5471H43.67V36.1276H7.70563V33.5471Z" fill="#0F0F0F"/>
<path d="M7.70563 41.2887H33.3945V43.8692H7.70563V41.2887Z" fill="#0F0F0F"/>
<path d="M34.5253 55.3066C34.8003 62.5236 38.2847 69.2307 44 73.5803C49.7297 69.2194 53.2183 62.4906 53.4767 55.3066C50.1623 54.8194 46.9807 53.7946 44 52.2527C41.0193 53.7946 37.8398 54.8194 34.5253 55.3066ZM50.0191 59.5428L42.9453 66.6167L39.0356 62.707L40.527 61.2156L42.9453 63.6339L48.5278 58.0514L50.0191 59.5428Z" fill="#117BD4"/>
<path d="M59.6998 49.27L58.607 49.3092C50.2596 49.6125 44.2199 45.0805 44 45C43.7827 45.0799 37.9088 49.6488 29.2344 49.305H28.1797V54.4477C28.1797 73.248 43.7884 80.7888 44 81C48.6415 78.3503 59.8203 70.3713 59.8203 54.4476V50.3596L59.6998 49.27ZM55.6016 54.3838C55.6016 68.8118 44.1932 75.9626 44 76.1841C43.816 75.9731 32.3984 69.1589 32.3984 54.4476V53.5072L33.3326 53.3363C39.5332 52.6202 43.6075 50.0306 44 49.8612C44.3966 50.0325 48.3464 52.6063 54.6674 53.3363L55.6016 53.4434V54.3838Z" fill="#117BD4"/>
</svg>
