<svg width="80" height="66" viewBox="0 0 80 66" fill="none" xmlns="http://www.w3.org/2000/svg">
<path d="M35.2424 28.3398L27.5818 20.6566C27.4244 20.6864 27.2631 20.7058 27.0966 20.7058H14.1935C14.027 20.7058 13.8657 20.6864 13.7083 20.6566L6.04771 28.3398C2.14709 32.2507 0 37.4505 0 42.9815V44C0 55.4168 9.26189 64.706 20.6451 64.706C32.0282 64.706 41.2901 55.4168 41.2901 44V42.9815C41.2901 37.4505 39.143 32.2507 35.2424 28.3398Z" fill="#117BD4"/>
<path d="M78.9936 28.4706C79.6129 27.7822 80 26.8802 80 25.8824C80 23.7419 78.2632 22 76.1291 22H74.8388V3.29407C74.8388 2.1895 73.9433 1.29407 72.8388 1.29407H48.4518C47.3472 1.29407 46.4518 2.1895 46.4518 3.29407V17.2648C45.3963 17.6 44.3963 18.1086 43.5241 18.8087L39.5473 22H28.9216L31.5022 24.5883H40.4531L45.1383 20.8301C46.2763 19.9152 47.7086 19.4118 49.1666 19.4118H59.355C59.355 20.8392 58.1976 22 56.7743 22H49.6324L48.8157 23.2281C47.7112 24.8898 45.8621 25.8824 43.8712 25.8824V28.4706C44.7615 28.4706 45.6273 28.3166 46.4518 28.0539V42.5481C45.5447 42.3488 44.6828 41.9593 43.9525 41.373L40.8944 38.9194C41.1267 40.0983 41.2415 41.3096 41.2673 42.5339L42.3383 43.3931C43.5267 44.3469 44.9538 44.9552 46.4505 45.1829V64.0002C46.4505 65.1047 47.346 66.0002 48.4505 66.0002H72.8375C73.942 66.0002 74.8375 65.1047 74.8375 64.0002V45.2942H76.1278C78.262 45.2942 79.9987 43.5523 79.9987 41.4118C79.9987 40.4141 79.6103 39.5121 78.9923 38.8236C79.6116 38.1351 79.9987 37.2331 79.9987 36.2354C79.9987 35.2376 79.6103 34.3356 78.9923 33.6471C79.6116 32.9586 79.9987 32.0566 79.9987 31.0589C79.9987 30.0611 79.6116 29.1591 78.9936 28.4706ZM77.4194 36.2354C77.4194 36.9484 76.8413 37.5295 76.1291 37.5295H73.5484C72.8362 37.5295 72.2581 36.9484 72.2581 36.2354C72.2581 35.5223 72.8362 34.9412 73.5484 34.9412H76.1291C76.8413 34.9412 77.4194 35.5223 77.4194 36.2354ZM73.5484 32.353C72.8362 32.353 72.2581 31.7719 72.2581 31.0589C72.2581 30.3458 72.8362 29.7648 73.5484 29.7648H76.1291C76.8413 29.7648 77.4194 30.3458 77.4194 31.0589C77.4194 31.7719 76.8413 32.353 76.1291 32.353H73.5484ZM77.4194 25.8824C77.4194 26.5954 76.8413 27.1765 76.1291 27.1765H73.5484C72.8362 27.1765 72.2581 26.5954 72.2581 25.8824C72.2581 25.1693 72.8362 24.5883 73.5484 24.5883H76.1291C76.8413 24.5883 77.4194 25.1693 77.4194 25.8824ZM72.2581 8.92809C69.7343 8.41174 67.742 6.41361 67.2272 3.88231H70.2581C71.3627 3.88231 72.2581 4.77774 72.2581 5.88231V8.92809ZM54.0634 3.88231C53.5485 6.41361 51.5563 8.41174 49.0324 8.92809V5.88231C49.0324 4.77774 49.9279 3.88231 51.0324 3.88231H54.0634ZM49.1666 16.8235C49.1215 16.8235 49.0776 16.8339 49.0324 16.8352V11.5435C52.9795 10.9728 56.1021 7.84103 56.6711 3.88231H64.6195C65.1885 7.84103 68.311 10.9728 72.2581 11.5435V22.2381C71.5755 22.4827 70.9872 22.9098 70.542 23.4663C68.2117 21.1757 65.2027 19.7767 61.9279 19.4855C61.9291 19.461 61.9356 19.4377 61.9356 19.4118C61.9356 17.9844 60.7782 16.8235 59.355 16.8235H49.1666ZM49.0324 26.7093C49.7718 26.1438 50.4311 25.4631 50.9628 24.6633L51.0131 24.5883H56.7743C58.6634 24.5883 60.3008 23.5543 61.2001 22.0324C64.5627 22.1903 67.6298 23.7587 69.7304 26.4169C69.8401 27.2024 70.1781 27.909 70.6839 28.4719C70.0646 29.1604 69.6775 30.0624 69.6775 31.0602C69.6775 32.0579 70.0659 32.9599 70.6839 33.6484C70.0646 34.3369 69.6775 35.2389 69.6775 36.2367C69.6775 37.2344 70.0659 38.1364 70.6839 38.8249C70.1781 39.3878 69.8401 40.0944 69.7304 40.88C67.5136 43.683 64.2259 45.2942 60.6453 45.2942C54.2415 45.2942 49.0324 40.0686 49.0324 33.6471V26.7093ZM60.6453 47.8825C64.4117 47.8825 67.9098 46.4162 70.542 43.828C70.9872 44.3844 71.5755 44.8115 72.2581 45.0561V55.7507C68.311 56.3214 65.1885 59.4532 64.6195 63.4119H56.6711C56.1021 59.4532 52.9795 56.3214 49.0324 55.7507V41.8066C51.6028 45.4741 55.8453 47.8825 60.6453 47.8825ZM49.0324 58.3661C51.5563 58.8825 53.5485 60.8806 54.0634 63.4119H51.0324C49.9279 63.4119 49.0324 62.5165 49.0324 61.4119V58.3661ZM67.2272 63.4119C67.742 60.8806 69.7343 58.8825 72.2581 58.3661V61.4119C72.2581 62.5165 71.3627 63.4119 70.2581 63.4119H67.2272ZM76.1291 42.706H73.5484C72.8362 42.706 72.2581 42.1249 72.2581 41.4118C72.2581 40.6988 72.8362 40.1177 73.5484 40.1177H76.1291C76.8413 40.1177 77.4194 40.6988 77.4194 41.4118C77.4194 42.1249 76.8413 42.706 76.1291 42.706Z" fill="#0F0F0F"/>
<path d="M60.6451 37.53C59.9328 37.53 59.3548 36.9489 59.3548 36.2358H56.7741C56.7741 37.9208 57.8567 39.3443 59.3548 39.8801V42.7065H61.9354V39.8801C63.4335 39.3443 64.516 37.9208 64.516 36.2358C64.516 34.0954 62.7793 32.3535 60.6451 32.3535C59.9328 32.3535 59.3548 31.7724 59.3548 31.0594C59.3548 30.3463 59.9328 29.7652 60.6451 29.7652C61.3573 29.7652 61.9354 30.3463 61.9354 31.0594H64.516C64.516 29.3744 63.4335 27.9509 61.9354 27.4151V24.5887H59.3548V27.4151C57.8567 27.9509 56.7741 29.3744 56.7741 31.0594C56.7741 33.1998 58.5109 34.9417 60.6451 34.9417C61.3573 34.9417 61.9354 35.5228 61.9354 36.2358C61.9354 36.9489 61.3573 37.53 60.6451 37.53Z" fill="#0F0F0F"/>
<path d="M30.9678 18.1177C30.9678 16.8003 30.3072 15.6369 29.3033 14.9355L33.5485 12.3796V11.6471C33.5485 8.01191 30.9537 4.93966 27.3795 4.34307L27.0401 4.28613L27.2208 3.46954L26.7188 2.96742C26.4169 2.6633 23.6737 0 20.6453 0C17.6169 0 14.8737 2.6633 14.5718 2.96742L14.0699 3.46954L14.2505 4.28613L13.9112 4.34307C10.337 4.93966 7.74215 8.01191 7.74215 11.6471V12.3796L11.9873 14.9342C10.9834 15.6369 10.3228 16.8003 10.3228 18.1177C10.3228 20.2582 12.0595 22.0001 14.1937 22.0001H27.0969C29.2311 22.0001 30.9678 20.2582 30.9678 18.1177ZM26.9563 6.89638C29.0466 7.24579 30.622 8.89709 30.9175 10.9444L25.4492 14.2353H24.835L26.4788 6.81614L26.9563 6.89638ZM20.6453 2.58824C21.9808 2.58824 23.5111 3.61448 24.3834 4.33919L22.1911 14.2353H19.1008L16.9073 4.33919C17.7795 3.61448 19.3098 2.58824 20.6453 2.58824ZM14.3344 6.89638L14.8118 6.81614L16.4557 14.2353H15.8415L10.3731 10.9444C10.6699 8.89709 12.2441 7.24579 14.3344 6.89638ZM12.9034 18.1177C12.9034 17.4046 13.4815 16.8236 14.1937 16.8236H27.0969C27.8092 16.8236 28.3872 17.4046 28.3872 18.1177C28.3872 18.8308 27.8092 19.4118 27.0969 19.4118H14.1937C13.4815 19.4118 12.9034 18.8308 12.9034 18.1177Z" fill="#0F0F0F"/>
<path d="M26.5117 55.5234C25.8779 55.8503 25.5463 56.5936 25.8057 57.258C26.0658 57.9244 26.8209 58.2579 27.462 57.9405C32.3112 55.5399 35.6158 50.6852 36.0739 45.2888C36.1342 44.5787 35.5509 43.9998 34.8383 43.9998C34.1257 43.9998 33.5547 44.5792 33.4824 45.2881C33.0396 49.6296 30.3868 53.5243 26.5117 55.5234Z" fill="white"/>
<path d="M21.8255 56.8873C21.1769 56.9466 20.645 57.4692 20.645 58.1205V58.2354C20.645 58.9501 21.2254 59.535 21.9376 59.4756C22.0189 59.4688 22.1 59.4614 22.1811 59.4533C22.8917 59.3828 23.3558 58.7031 23.2266 58.0008L23.2058 57.8878C23.0878 57.2467 22.4747 56.8279 21.8255 56.8873Z" fill="white"/>
</svg>
