<svg width="80" height="80" viewBox="0 0 80 80" fill="none" xmlns="http://www.w3.org/2000/svg">
<g clip-path="url(#clip0_40_1438)">
<g clip-path="url(#clip1_40_1438)">
<path d="M13.3308 1.57349V10.6672C13.3291 11.3737 13.0478 12.0507 12.5482 12.5503C12.0487 13.0498 11.3716 13.3312 10.6652 13.3329H1.57141C1.70508 13.0416 1.89036 12.7769 2.11829 12.5516L12.5448 2.12036C12.7715 1.89197 13.0378 1.70667 13.3308 1.57349Z" fill="#117BD4"/>
<path d="M42.6607 29.5312V30.6719C44.7628 31.5465 46.6718 32.8269 48.2787 34.4398C49.8856 36.0527 51.1589 37.9665 52.0257 40.0719C52.8924 42.1772 53.3357 44.4327 53.3302 46.7094C53.3247 48.9862 52.8705 51.2395 51.9935 53.3406C51.6092 54.2703 51.5248 53.8406 50.9732 54.6844H54.9732C55.5217 53.8375 55.6107 54.2656 55.9936 53.3328C57.0057 50.9072 57.4529 48.2833 57.3014 45.6594C57.15 43.0355 56.4038 40.4804 55.1193 38.1874C53.8349 35.8944 52.0458 33.9236 49.8874 32.4239C47.7289 30.9243 45.2577 29.9351 42.6607 29.5312V29.5312Z" fill="white"/>
<path d="M75.9987 1.72928e-05H55.7799C55.2522 -0.00153668 54.7293 0.101657 54.2417 0.303621C53.7541 0.505584 53.3114 0.802301 52.9393 1.17658L42.5174 11.6C42.1428 11.972 41.8458 12.4146 41.6435 12.9022C41.4413 13.3898 41.3379 13.9127 41.3393 14.4406V24C41.3511 24.3458 41.4968 24.6735 41.7456 24.9139C41.9944 25.1544 42.3269 25.2887 42.6729 25.2887C43.0189 25.2887 43.3514 25.1544 43.6002 24.9139C43.849 24.6735 43.9947 24.3458 44.0065 24V14.6672H52.0065C52.5318 14.6672 53.0519 14.5637 53.5372 14.3627C54.0225 14.1617 54.4635 13.8671 54.8349 13.4956C55.2064 13.1242 55.501 12.6832 55.702 12.1979C55.903 11.7126 56.0065 11.1925 56.0065 10.6672V2.66721H76.0065C76.36 2.66721 76.699 2.80763 76.9489 3.05758C77.1989 3.30753 77.3393 3.64653 77.3393 4.00002V50.6672C77.3393 51.0207 77.1989 51.3597 76.9489 51.6097C76.699 51.8596 76.36 52 76.0065 52H61.3315C60.9857 52.0119 60.658 52.1576 60.4176 52.4064C60.1772 52.6552 60.0428 52.9876 60.0428 53.3336C60.0428 53.6796 60.1772 54.0121 60.4176 54.2609C60.658 54.5097 60.9857 54.6554 61.3315 54.6672H75.9987C77.0595 54.6672 78.077 54.2458 78.8271 53.4957C79.5772 52.7455 79.9987 51.7281 79.9987 50.6672V4.00002C79.9987 2.93915 79.5772 1.92174 78.8271 1.17159C78.077 0.421445 77.0595 1.72928e-05 75.9987 1.72928e-05V1.72928e-05ZM51.9987 12H45.8846L53.3315 4.55158V10.6672C53.3315 11.0207 53.1911 11.3597 52.9411 11.6097C52.6912 11.8596 52.3522 12 51.9987 12Z" fill="#0F0F0F"/>
<path d="M49.3328 21.3329H72C72.3535 21.3329 72.6925 21.1924 72.9424 20.9425C73.1924 20.6925 73.3328 20.3535 73.3328 20C73.3328 19.6466 73.1924 19.3076 72.9424 19.0576C72.6925 18.8077 72.3535 18.6672 72 18.6672H49.3328C48.9793 18.6672 48.6403 18.8077 48.3904 19.0576C48.1404 19.3076 48 19.6466 48 20C48 20.3535 48.1404 20.6925 48.3904 20.9425C48.6403 21.1924 48.9793 21.3329 49.3328 21.3329V21.3329Z" fill="#0F0F0F"/>
<path d="M49.3334 28H72.0005C72.3463 27.9881 72.674 27.8424 72.9144 27.5936C73.1549 27.3448 73.2893 27.0123 73.2893 26.6664C73.2893 26.3204 73.1549 25.9879 72.9144 25.7391C72.674 25.4903 72.3463 25.3446 72.0005 25.3328H49.3334C48.9876 25.3446 48.6599 25.4903 48.4195 25.7391C48.179 25.9879 48.0446 26.3204 48.0446 26.6664C48.0446 27.0123 48.179 27.3448 48.4195 27.5936C48.6599 27.8424 48.9876 27.9881 49.3334 28V28Z" fill="#0F0F0F"/>
<path d="M72.0003 32H58.3066C57.9608 32.0118 57.6331 32.1575 57.3927 32.4063C57.1522 32.6551 57.0179 32.9876 57.0179 33.3336C57.0179 33.6796 57.1522 34.0121 57.3927 34.2609C57.6331 34.5097 57.9608 34.6553 58.3066 34.6672H72.0003C72.3461 34.6553 72.6738 34.5097 72.9142 34.2609C73.1546 34.0121 73.289 33.6796 73.289 33.3336C73.289 32.9876 73.1546 32.6551 72.9142 32.4063C72.6738 32.1575 72.3461 32.0118 72.0003 32V32Z" fill="#0F0F0F"/>
<path d="M72.0011 38.6672H61.6542C61.4792 38.6672 61.3059 38.7017 61.1442 38.7687C60.9825 38.8357 60.8355 38.9338 60.7118 39.0576C60.588 39.1814 60.4898 39.3283 60.4229 39.49C60.3559 39.6517 60.3214 39.825 60.3214 40C60.3214 40.1751 60.3559 40.3484 60.4229 40.5101C60.4898 40.6718 60.588 40.8187 60.7118 40.9425C60.8355 41.0662 60.9825 41.1644 61.1442 41.2314C61.3059 41.2984 61.4792 41.3329 61.6542 41.3329H72.0011C72.3546 41.3329 72.6936 41.1924 72.9435 40.9425C73.1935 40.6925 73.3339 40.3535 73.3339 40C73.3339 39.6466 73.1935 39.3076 72.9435 39.0576C72.6936 38.8077 72.3546 38.6672 72.0011 38.6672V38.6672Z" fill="#0F0F0F"/>
<path d="M71.9985 45.3334H62.6657C62.4868 45.3273 62.3084 45.3573 62.1412 45.4215C61.9741 45.4858 61.8216 45.583 61.6928 45.7075C61.564 45.8319 61.4616 45.981 61.3917 46.1458C61.3217 46.3107 61.2857 46.4879 61.2857 46.667C61.2857 46.8461 61.3217 47.0233 61.3917 47.1882C61.4616 47.353 61.564 47.5021 61.6928 47.6266C61.8216 47.751 61.9741 47.8482 62.1412 47.9125C62.3084 47.9768 62.4868 48.0067 62.6657 48.0006H71.9985C72.3443 47.9888 72.672 47.8431 72.9124 47.5943C73.1529 47.3455 73.2873 47.013 73.2873 46.667C73.2873 46.321 73.1529 45.9886 72.9124 45.7397C72.672 45.4909 72.3443 45.3453 71.9985 45.3334Z" fill="#0F0F0F"/>
<path d="M24 46.6667H24.0125C24.0123 45.6967 24.1002 44.7287 24.275 43.7745C24.0951 44.7282 24.003 45.6963 24 46.6667V46.6667Z" fill="#117BD4"/>
<path d="M24.3571 43.3567C24.3665 43.3177 24.3743 43.2786 24.3837 43.2411C24.3759 43.2817 24.3665 43.3177 24.3571 43.3567Z" fill="#117BD4"/>
<path d="M31.9964 48C31.9964 48.3534 31.856 48.6924 31.606 48.9424C31.3561 49.1923 31.0171 49.3328 30.6636 49.3328H24.237C24.5495 51.2078 24.1824 51.6859 25.1386 53.3328H33.4542C34.5151 53.3328 35.5325 52.9113 36.2827 52.1612C37.0328 51.411 37.4542 50.3936 37.4542 49.3328L37.3292 30.739C33.187 31.8156 28.2917 34.2812 26.162 38.6703H30.6636C31.0171 38.6703 31.3561 38.8107 31.606 39.0606C31.856 39.3106 31.9964 39.6496 31.9964 40.0031C31.9964 40.3566 31.856 40.6956 31.606 40.9455C31.3561 41.1955 31.0171 41.3359 30.6636 41.3359H24.9292C24.7066 41.9598 24.5229 42.597 24.3792 43.2437C24.3699 43.2812 24.362 43.3203 24.3527 43.3593C24.323 43.4984 24.2964 43.6374 24.2714 43.7781C24.0966 44.7322 24.0087 45.7002 24.0089 46.6703H30.6636C31.0165 46.6703 31.3551 46.8103 31.6049 47.0595C31.8548 47.3088 31.9956 47.647 31.9964 48V48Z" fill="#117BD4"/>
<path d="M55.625 43.2411C55.6344 43.2802 55.6422 43.3177 55.65 43.3567C55.6344 43.3177 55.625 43.2817 55.625 43.2411Z" fill="#117BD4"/>
<path d="M55.7232 43.7766C55.8967 44.7304 55.9841 45.6978 55.9841 46.6672H55.9966C55.9941 45.6974 55.9026 44.7298 55.7232 43.7766V43.7766Z" fill="#117BD4"/>
<path d="M21.4038 48C21.3726 47.5546 21.3366 47.114 21.3366 46.6671C21.3367 44.2088 21.8242 41.7749 22.771 39.5062L22.7835 39.4687C24.0289 36.4931 26.0241 33.8909 28.5747 31.916C31.1252 29.9411 34.144 28.6608 37.3366 28.2V3.99997C37.3346 3.29241 37.0522 2.61449 36.5515 2.11461C36.0507 1.61473 35.3723 1.3336 34.6648 1.33278H14.4382C14.0558 1.33144 13.6777 1.41356 13.3304 1.5734V10.6672C13.3287 11.3736 13.0473 12.0507 12.5478 12.5502C12.0483 13.0498 11.3712 13.3311 10.6647 13.3328H1.57099C1.41115 13.6801 1.32903 14.0582 1.33037 14.4406V50.6671C1.33284 51.3736 1.61469 52.0504 2.1144 52.5498C2.6141 53.0492 3.29108 53.3307 3.99756 53.3328H22.5913C21.937 51.6271 21.5369 49.8345 21.4038 48.0125V48ZM7.99756 18.6671H30.6648C31.0182 18.6671 31.3572 18.8076 31.6072 19.0575C31.8571 19.3075 31.9976 19.6465 31.9976 20C31.9976 20.3534 31.8571 20.6925 31.6072 20.9424C31.3572 21.1924 31.0182 21.3328 30.6648 21.3328H7.99756C7.64407 21.3328 7.30507 21.1924 7.05512 20.9424C6.80517 20.6925 6.66474 20.3534 6.66474 20C6.66474 19.6465 6.80517 19.3075 7.05512 19.0575C7.30507 18.8076 7.64407 18.6671 7.99756 18.6671V18.6671ZM7.99756 25.3328H30.6648C31.0105 25.3446 31.3382 25.4903 31.5786 25.7391C31.8191 25.9879 31.9535 26.3204 31.9535 26.6664C31.9535 27.0124 31.8191 27.3448 31.5786 27.5936C31.3382 27.8424 31.0105 27.9881 30.6648 28H7.99756C7.65177 27.9881 7.32409 27.8424 7.08366 27.5936C6.84323 27.3448 6.70884 27.0124 6.70884 26.6664C6.70884 26.3204 6.84323 25.9879 7.08366 25.7391C7.32409 25.4903 7.65177 25.3446 7.99756 25.3328ZM7.99756 32H21.6913C22.0371 32.0118 22.3648 32.1575 22.6052 32.4063C22.8456 32.6551 22.98 32.9876 22.98 33.3336C22.98 33.6795 22.8456 34.012 22.6052 34.2608C22.3648 34.5096 22.0371 34.6553 21.6913 34.6671H7.99756C7.65177 34.6553 7.32409 34.5096 7.08366 34.2608C6.84323 34.012 6.70884 33.6795 6.70884 33.3336C6.70884 32.9876 6.84323 32.6551 7.08366 32.4063C7.32409 32.1575 7.65177 32.0118 7.99756 32V32ZM17.3304 48H7.99756C7.65177 47.9881 7.32409 47.8424 7.08366 47.5936C6.84323 47.3448 6.70884 47.0124 6.70884 46.6664C6.70884 46.3204 6.84323 45.9879 7.08366 45.7391C7.32409 45.4903 7.65177 45.3446 7.99756 45.3328H17.3304C17.5093 45.3266 17.6877 45.3566 17.8549 45.4209C18.022 45.4851 18.1745 45.5824 18.3033 45.7068C18.4321 45.8312 18.5345 45.9803 18.6044 46.1452C18.6744 46.31 18.7104 46.4873 18.7104 46.6664C18.7104 46.8454 18.6744 47.0227 18.6044 47.1875C18.5345 47.3524 18.4321 47.5015 18.3033 47.6259C18.1745 47.7503 18.022 47.8476 17.8549 47.9119C17.6877 47.9761 17.5093 48.0061 17.3304 48V48ZM18.3444 41.3328H7.99756C7.64407 41.3328 7.30507 41.1923 7.05512 40.9424C6.80517 40.6924 6.66474 40.3534 6.66474 40C6.66474 39.6465 6.80517 39.3075 7.05512 39.0575C7.30507 38.8076 7.64407 38.6671 7.99756 38.6671H18.3444C18.6979 38.6671 19.0369 38.8076 19.2869 39.0575C19.5368 39.3075 19.6772 39.6465 19.6772 40C19.6772 40.3534 19.5368 40.6924 19.2869 40.9424C19.0369 41.1923 18.6979 41.3328 18.3444 41.3328V41.3328Z" fill="#117BD4"/>
<path d="M58.669 46.6677C58.6689 44.2094 58.1814 41.7755 57.2346 39.5068V39.5068L57.2221 39.4693C55.6278 35.6502 52.8083 32.4701 49.2077 30.4299C45.6071 28.3897 41.43 27.6054 37.3346 28.2005V30.9021C37.7737 30.8287 38.219 30.7724 38.669 30.7365H38.7393H38.7909C39.1909 30.7037 39.5924 30.6787 40.0018 30.6787C40.4112 30.6787 40.8127 30.7037 41.2127 30.7365H41.2643H41.3346C41.7846 30.7724 42.2299 30.8287 42.669 30.9021V29.5318C45.265 29.9376 47.7349 30.928 49.8921 32.4281C52.0494 33.9282 53.8375 35.8989 55.1217 38.1913C56.4058 40.4837 57.1523 43.0379 57.3047 45.661C57.4572 48.2841 57.0117 50.9076 56.0018 53.3333C55.6158 54.2636 55.1451 55.1565 54.5955 56.0005H52.9815C51.3349 58.2883 49.1145 60.1018 46.544 61.2583L46.358 61.3396L46.2018 61.4083L45.8893 61.5365L45.858 61.5474C42.0978 63.0412 37.9089 63.0412 34.1487 61.5474L34.1174 61.5365L33.8049 61.4083L33.6487 61.3396L33.4627 61.2583C30.8922 60.1018 28.6718 58.2883 27.0252 56.0005H25.4018C24.8523 55.1565 24.3815 54.2636 23.9955 53.3333H22.5893C23.611 56.0017 25.2311 58.4001 27.3249 60.3442C29.4188 62.2883 31.9307 63.7262 34.6674 64.5474V74.6677C34.6674 76.0821 35.2293 77.4385 36.2294 78.4386C37.2295 79.4387 38.5859 80.0005 40.0002 80.0005C41.4146 80.0005 42.771 79.4387 43.7711 78.4386C44.7712 77.4385 45.333 76.0821 45.333 74.6677V64.5474C48.9458 63.4636 52.146 61.3119 54.5131 58.3754C56.8802 55.4388 58.3034 51.8548 58.5955 48.0943C58.5955 48.0615 58.6143 48.0333 58.6143 48.0005C58.6143 47.9677 58.6034 47.9646 58.6018 47.9443C58.633 47.5208 58.669 47.0974 58.669 46.6677ZM42.669 74.6677C42.669 75.3751 42.388 76.0535 41.8878 76.5537C41.3876 77.0539 40.7092 77.3349 40.0018 77.3349C39.2944 77.3349 38.616 77.0539 38.1158 76.5537C37.6156 76.0535 37.3346 75.3751 37.3346 74.6677V65.1208C39.1014 65.4052 40.9022 65.4052 42.669 65.1208V74.6677Z" fill="#0F0F0F"/>
<path d="M46.3527 61.3391L46.1964 61.4079L46.3527 61.3391Z" fill="#0F0F0F"/>
<path d="M34.1384 61.5467L34.1071 61.5358L34.1384 61.5467Z" fill="#0F0F0F"/>
<path d="M54.7616 53.4125H47.9975C46.5832 53.4125 45.2268 52.8507 44.2267 51.8506C43.2266 50.8505 42.6647 49.494 42.6647 48.0797V28.3156C42.2257 28.2406 41.7804 28.1859 41.3304 28.1484V48.0797C41.3328 49.8472 42.0361 51.5416 43.2859 52.7914C44.5357 54.0412 46.2301 54.7444 47.9975 54.7469H53.9835" fill="#0F0F0F"/>
<path d="M45.8795 61.5358L45.8482 61.5467L45.8795 61.5358Z" fill="#0F0F0F"/>
<path d="M33.7991 61.4058L33.6429 61.337L33.7991 61.4058Z" fill="#0F0F0F"/>
<path d="M24.8705 38.1891C23.5869 40.4821 22.8412 43.0368 22.6896 45.6602C22.538 48.2836 22.9845 50.9072 23.9955 53.3328C24.3814 54.2631 24.8522 55.1559 25.4017 56H27.022C25.062 53.2832 24.0094 50.0172 24.0142 46.6672H24.0017C24.0047 45.6967 24.0968 44.7286 24.2767 43.775C24.3017 43.6344 24.3298 43.4953 24.358 43.3563C24.3673 43.3172 24.3751 43.2781 24.3845 43.2406C25.0684 40.1274 26.6663 37.2893 28.9735 35.0901C31.2807 32.8909 34.1921 31.4308 37.3345 30.8969V29.5312C34.7366 29.9353 32.2646 30.9246 30.1053 32.4245C27.946 33.9244 26.1559 35.8956 24.8705 38.1891V38.1891Z" fill="#0F0F0F"/>
<path d="M24.2768 43.7748C24.3018 43.6342 24.3284 43.4951 24.358 43.3561C24.3299 43.4951 24.3018 43.6342 24.2768 43.7748Z" fill="#0F0F0F"/>
<path d="M55.6185 43.2406C55.6279 43.2797 55.6357 43.3172 55.6435 43.3563C55.6732 43.4953 55.7013 43.6359 55.7279 43.7766C55.9073 44.7297 55.9988 45.6973 56.0013 46.6672H55.9888C55.9936 50.0172 54.941 53.2832 52.981 56H54.6013C55.1509 55.1559 55.6216 54.2631 56.0076 53.3328C57.0175 50.9061 57.4627 48.2815 57.3094 45.6575C57.1561 43.0335 56.4084 40.4787 55.1228 38.186C53.8372 35.8934 52.0473 33.9229 49.8884 32.4236C47.7294 30.9243 45.258 29.9352 42.6607 29.5312V30.9C45.8042 31.4321 48.7171 32.891 51.0258 35.0898C53.3345 37.2885 54.9338 40.1268 55.6185 43.2406Z" fill="#0F0F0F"/>
<path d="M55.6429 43.3561C55.6741 43.4951 55.7007 43.6358 55.7272 43.7764C55.7007 43.6358 55.6725 43.4951 55.6429 43.3561Z" fill="#0F0F0F"/>
<path d="M42.6607 28.3157V48.0797C42.6607 49.4941 43.2226 50.8505 44.2227 51.8506C45.2227 52.8507 46.5792 53.4125 47.9935 53.4125H54.6982C57.3373 52.1875 55.981 50.1563 55.981 46.6672H49.3263C48.9729 46.6672 48.6339 46.8077 48.3839 47.0576C48.1339 47.3076 47.9935 47.6466 47.9935 48.0001C47.9935 48.3535 48.1339 48.6925 48.3839 48.9425C48.6339 49.1924 48.9729 49.3329 49.3263 49.3329H55.856C56.756 51.8329 56.7045 51.9719 55.156 52.0797H47.9935C46.9327 52.0797 45.9152 51.6583 45.1651 50.9082C44.4149 50.158 43.9935 49.1406 43.9935 48.0797V28.6125C48.1373 29.6891 52.3279 34.9657 54.4779 38.6672H49.3217C48.9682 38.6672 48.6292 38.8077 48.3792 39.0576C48.1293 39.3076 47.9888 39.6466 47.9888 40C47.9888 40.3535 48.1293 40.6925 48.3792 40.9425C48.6292 41.1924 48.9682 41.3329 49.3217 41.3329H55.056" fill="#0F0F0F"/>
<path d="M24.8726 38.1891C26.1574 35.8964 27.9465 33.9257 30.1046 32.4258C32.2628 30.926 34.7336 29.9362 37.3304 29.5313V28.1985C34.1377 28.6593 31.1189 29.9396 28.5684 31.9145C26.0179 33.8894 24.0226 36.4916 22.7773 39.4672L22.7648 39.5047C21.818 41.7734 21.3304 44.2073 21.3304 46.6657C21.3304 47.1125 21.3663 47.5532 21.3976 47.9985V48.011C21.5311 49.8331 21.9318 51.6257 22.5866 53.3313H23.9929C22.9829 50.9056 22.5373 48.2821 22.6897 45.6589C22.8421 43.0358 23.5885 40.4816 24.8726 38.1891V38.1891Z" fill="#0F0F0F"/>
<path d="M45.8304 31.7958C45.8304 31.7958 49.6991 32.6536 53.8366 38.6708H52.1616L45.8304 31.7958Z" fill="white"/>
<path d="M51.2143 38.6672H54.7643L55.6174 41.3329H52.6502L51.2143 38.6672Z" fill="#0F0F0F"/>
</g>
</g>
<defs>
<clipPath id="clip0_40_1438">
<rect width="80" height="80" fill="white"/>
</clipPath>
<clipPath id="clip1_40_1438">
<rect width="80" height="80" fill="white"/>
</clipPath>
</defs>
</svg>
