<svg width="112" height="64" viewBox="0 0 112 64" fill="none" xmlns="http://www.w3.org/2000/svg">
<path d="M19.7395 33.6848H1.68885C0.756153 33.6848 0 34.458 0 35.4118C0 36.3655 0.756153 37.1388 1.68885 37.1388H19.7395C20.6722 37.1388 21.4283 36.3655 21.4283 35.4118C21.4283 34.458 20.6722 33.6848 19.7395 33.6848Z" fill="#0F0F0F"/>
<path d="M17.9388 41.0676H7.10821C6.1755 41.0676 5.41934 41.8409 5.41934 42.7946C5.41934 43.7484 6.1755 44.5216 7.10821 44.5216H17.9388C18.8715 44.5216 19.6277 43.7484 19.6277 42.7946C19.6277 41.8409 18.8715 41.0676 17.9388 41.0676Z" fill="#0F0F0F"/>
<path d="M16.1271 48.4504H12.517C11.5843 48.4504 10.8281 49.2237 10.8281 50.1774C10.8281 51.1312 11.5843 51.9044 12.517 51.9044H16.1271C17.0598 51.9044 17.816 51.1312 17.816 50.1774C17.816 49.2237 17.0598 48.4504 16.1271 48.4504Z" fill="#0F0F0F"/>
<path d="M110.228 38.7357L103.63 25.2617L101.21 20.3874C100.643 19.2455 99.4835 18.5247 98.2172 18.5247H82.5533V52.2081H106.805H106.807H106.974C108.823 52.2081 110.32 50.7006 110.32 48.8395V39.529C110.321 39.2629 110.29 38.9951 110.228 38.7357Z" fill="white"/>
<path d="M110.231 38.7358H89.2475V25.2617H103.633L109.972 38.025C110.084 38.2507 110.171 38.4899 110.231 38.7358Z" fill="#F3F3F3"/>
<path d="M106.814 52.2097C106.926 52.7537 106.983 53.3162 106.983 53.8939C106.983 58.5442 103.238 62.3152 98.6191 62.3152C94.0005 62.3152 90.2552 58.5442 90.2552 53.8939C90.2552 53.3162 90.3121 52.7537 90.4241 52.2097C91.1986 48.3662 94.5743 45.4727 98.6191 45.4727C102.664 45.4727 106.04 48.3662 106.814 52.2097Z" fill="white"/>
<path d="M79.2089 1.68481H31.369C29.5206 1.68481 28.0234 3.19222 28.0234 5.05332V48.8423C28.0234 50.7034 29.5206 52.2108 31.369 52.2108H82.5545V5.05332C82.5545 3.19222 81.0573 1.68481 79.2089 1.68481Z" fill="#117BD4"/>
<path d="M54.6161 52.2102C54.7282 52.7542 54.785 53.3167 54.785 53.8944C54.785 58.5446 51.0397 62.3157 46.4211 62.3157C41.8026 62.3157 38.0572 58.5446 38.0572 53.8944C38.0572 53.3167 38.1141 52.7542 38.2262 52.2102C39.0007 48.3667 42.3763 45.4731 46.4211 45.4731C50.4659 45.4731 53.8416 48.3667 54.6161 52.2102Z" fill="white"/>
<path d="M34.7146 38.736H28.0234V45.473H34.7146V38.736Z" fill="white"/>
<path d="M105.128 24.5093L102.707 19.635C101.851 17.9121 100.131 16.8409 98.219 16.8409H84.2279V5.05276C84.2279 2.26701 81.9763 0 79.2095 0H31.3713C28.6045 0 26.3529 2.26701 26.3529 5.05276V48.8417C26.3529 51.6275 28.6045 53.8945 31.3713 53.8945H36.3896C36.3896 56.4798 37.3615 58.8428 38.954 60.6315H28.0257C27.1023 60.6315 26.3529 61.386 26.3529 62.3157C26.3529 63.2454 27.1023 64 28.0257 64H110.323C111.247 64 111.996 63.2454 111.996 62.3157C111.996 61.386 111.247 60.6315 110.323 60.6315H106.086C107.679 58.8428 108.651 56.4815 108.651 53.8945C108.651 53.7985 108.645 53.7025 108.644 53.6065C110.594 52.9125 111.996 51.0397 111.996 48.8417V39.5311C111.996 37.5656 112.382 39.3998 105.128 24.5093ZM102.598 26.9464L107.617 37.0519H90.919V26.9464H102.598ZM91.1415 60.6315H53.8986C55.4911 58.8428 56.463 56.4815 56.463 53.8945C57.7477 53.8945 88.0318 53.8945 88.5788 53.8945C88.5771 56.4798 89.549 58.8411 91.1415 60.6315ZM29.6985 40.4204H33.0441V43.7889H29.6985V40.4204ZM31.3713 50.526C30.4496 50.526 29.6985 49.7697 29.6985 48.8417V47.1574H34.7168C35.6402 47.1574 36.3896 46.4029 36.3896 45.4732V38.7362C36.3896 37.8065 35.6402 37.0519 34.7168 37.0519H29.6985V5.05276C29.6985 4.12474 30.4496 3.36851 31.3713 3.36851H79.2112C80.1329 3.36851 80.884 4.12474 80.884 5.05276C80.884 6.30585 80.884 46.4871 80.884 50.526H55.8876C54.4908 46.5511 50.7103 43.7889 46.4263 43.7889C42.1407 43.7889 38.3585 46.5528 36.9634 50.526H31.3713ZM39.7352 53.8945C39.7352 53.4364 39.7804 52.985 39.8707 52.5454C40.4997 49.4245 43.2564 47.1574 46.4263 47.1574C49.5963 47.1574 52.353 49.4228 52.982 52.5454L52.9836 52.5521C53.0723 52.9833 53.1175 53.4364 53.1175 53.8945C53.1175 57.6083 50.1165 60.6315 46.4263 60.6315C42.7362 60.6315 39.7352 57.6083 39.7352 53.8945ZM91.9227 53.8945C91.9227 53.4364 91.9678 52.985 92.0582 52.5454C92.6871 49.4245 95.4439 47.1574 98.6138 47.1574C101.784 47.1574 104.54 49.4228 105.169 52.5454L105.171 52.5521C105.26 52.9833 105.305 53.4364 105.305 53.8945C105.305 57.6083 102.304 60.6315 98.6138 60.6315C94.9253 60.6315 91.9227 57.6083 91.9227 53.8945ZM107.958 50.2043C106.474 46.4029 102.782 43.7889 98.6155 43.7889C94.3298 43.7889 90.5476 46.5528 89.1525 50.526H84.2295V20.2111H98.2207C98.858 20.2111 99.4318 20.5681 99.7178 21.1425L100.927 23.5796H89.2479C88.3245 23.5796 87.5751 24.3341 87.5751 25.2638V38.7379C87.5751 39.6676 88.3245 40.4221 89.2479 40.4221H108.652V48.8434C108.651 49.4009 108.376 49.8977 107.958 50.2043Z" fill="#0F0F0F"/>
<path d="M98.6126 50.5261C96.7675 50.5261 95.267 52.0369 95.267 53.8946C95.267 55.7524 96.7675 57.2631 98.6126 57.2631C100.458 57.2631 101.958 55.7524 101.958 53.8946C101.958 52.0369 100.458 50.5261 98.6126 50.5261Z" fill="#0F0F0F"/>
<path d="M46.4262 50.5261C44.5811 50.5261 43.0807 52.0369 43.0807 53.8946C43.0807 55.7524 44.5811 57.2631 46.4262 57.2631C48.2713 57.2631 49.7718 55.7524 49.7718 53.8946C49.7718 52.0369 48.2696 50.5261 46.4262 50.5261Z" fill="#0F0F0F"/>
<path fill-rule="evenodd" clip-rule="evenodd" d="M26 5C26 2.23858 28.2386 0 31 0H80C82.7614 0 85 2.23858 85 5V42V49V54H80H73H56.9883C56.9961 53.8343 57 53.6676 57 53.5C57 47.701 52.299 43 46.5 43C40.701 43 36 47.701 36 53.5C36 53.6676 36.0039 53.8343 36.0117 54H31C28.2386 54 26 51.7614 26 49V5Z" fill="#117BD4"/>
<circle cx="46.5" cy="53.5" r="8.5" fill="white" stroke="#0F0F0F" stroke-width="4"/>
<circle cx="46.5" cy="53.5" r="3.5" fill="#0F0F0F"/>
<circle cx="98.5" cy="53.5" r="8.5" fill="white" stroke="#0F0F0F" stroke-width="4"/>
<circle cx="98.5" cy="53.5" r="3.5" fill="#0F0F0F"/>
<path d="M51.4448 13.474H72.5219C73.4453 13.474 74.1947 12.7194 74.1947 11.7897C74.1947 10.86 73.4453 10.1055 72.5219 10.1055H51.4448C50.5215 10.1055 49.7721 10.86 49.7721 11.7897C49.7721 12.7194 50.5215 13.474 51.4448 13.474Z" fill="white"/>
<path d="M72.5249 16.8425H58.139C57.2156 16.8425 56.4662 17.5971 56.4662 18.5268C56.4662 19.4565 57.2156 20.211 58.139 20.211H72.5249C73.4483 20.211 74.1977 19.4565 74.1977 18.5268C74.1977 17.5971 73.4483 16.8425 72.5249 16.8425Z" fill="white"/>
<path d="M44.7534 13.474C45.6768 13.474 46.4262 12.7194 46.4262 11.7897C46.4262 10.86 45.6768 10.1055 44.7534 10.1055C43.8301 10.1055 43.0807 10.86 43.0807 11.7897C43.0807 12.7194 43.8301 13.474 44.7534 13.474Z" fill="white"/>
</svg>
